{"asset":{"version":"2.0","generator":"babylon.js glTF exporter for Autodesk MAYA 2022.5 v20240312.5"},"scene":0,"scenes":[{"nodes":[0]}],"nodes":[{"mesh":0,"name":"Ring_L"}],"meshes":[{"primitives":[{"attributes":{"POSITION":1,"TANGENT":2,"NORMAL":3,"TEXCOORD_0":4},"indices":0,"material":0}],"name":"Ring_L"}],"accessors":[{"bufferView":0,"componentType":5123,"count":5904,"type":"SCALAR","name":"accessorIndices"},{"bufferView":1,"componentType":5126,"count":1190,"max":[0.2960282,0.9175731,0.347284615],"min":[-0.296028167,0.00242675771,-0.280926168],"type":"VEC3","name":"accessorPositions"},{"bufferView":2,"componentType":5126,"count":1190,"type":"VEC4","name":"accessorTangents"},{"bufferView":1,"byteOffset":14280,"componentType":5126,"count":1190,"type":"VEC3","name":"accessorNormals"},{"bufferView":3,"componentType":5126,"count":1190,"type":"VEC2","name":"accessorUVs"}],"bufferViews":[{"buffer":0,"byteLength":11808,"name":"bufferViewScalar"},{"buffer":0,"byteOffset":11808,"byteLength":28560,"byteStride":12,"name":"bufferViewFloatVec3"},{"buffer":0,"byteOffset":40368,"byteLength":19040,"byteStride":16,"name":"bufferViewFloatVec4"},{"buffer":0,"byteOffset":59408,"byteLength":9520,"byteStride":8,"name":"bufferViewFloatVec2"}],"buffers":[{"uri":"ring.bin","byteLength":68928}],"materials":[{"pbrMetallicRoughness":{"baseColorFactor":[0.5,0.5,0.5,1.0],"metallicFactor":0.0,"roughnessFactor":0.201679826},"normalTexture":{"index":0},"name":"blinn1"}],"textures":[{"sampler":0,"source":0,"name":"Ring_texture_carPaint_lightBlue_STRDSG_Normal.png"}],"images":[{"uri":"Ring_texture_carPaint_lightBlue_STRDSG_Normal.png"}],"samplers":[{"magFilter":9729,"minFilter":9987}]}