<svg width="426" height="160" viewBox="0 0 426 160" fill="none" xmlns="http://www.w3.org/2000/svg">
<path d="M0.696953 146.842C35.0897 137.732 71.0936 134.951 106.475 138.809C142.067 142.689 176.497 153.282 211.999 157.726C241.24 161.386 272.227 160.436 299.598 148.509C313.356 142.513 325.489 133.62 335.369 122.347C346.123 110.075 354.07 95.781 361.309 81.2516C375.131 53.5159 388.583 21.8592 417.419 6.44756C420.686 4.70194 424.092 3.25535 427.607 2.0891C428.289 1.86109 427.996 0.780817 427.307 1.00883C397.875 10.7686 381.018 38.908 368.02 65.0812C360.515 80.1937 353.474 95.6165 343.864 109.555C334.826 122.664 323.612 134.095 309.759 142.124C283.636 157.27 252.023 160.208 222.431 157.712C186.828 154.71 152.442 144.117 117.158 139.044C82.5328 134.069 47.1584 135.243 12.9755 142.711C8.75652 143.634 4.56375 144.655 0.393455 145.761C-0.303467 145.944 -0.0074625 147.028 0.693206 146.842H0.696953Z" fill="url(#paint0_linear_81_49)"/>
<defs>
<linearGradient id="paint0_linear_81_49" x1="0.498368" y1="80.2947" x2="427.52" y2="80.2947" gradientUnits="userSpaceOnUse">
<stop offset="0.02" stop-color="#C13D8C"/>
<stop offset="0.22" stop-color="#E24A31"/>
<stop offset="0.3" stop-color="#E77F2E"/>
<stop offset="0.36" stop-color="#EBA62C"/>
<stop offset="0.41" stop-color="#EEBF2B"/>
<stop offset="0.44" stop-color="#EFC82B"/>
<stop offset="0.59" stop-color="#09A55F"/>
<stop offset="0.73" stop-color="#10A4B7"/>
<stop offset="0.84" stop-color="#0A5C88"/>
<stop offset="1" stop-color="#8E00E4"/>
</linearGradient>
</defs>
</svg>
