<svg width="289" height="24" viewBox="0 0 289 24" fill="none" xmlns="http://www.w3.org/2000/svg">
<g style="mix-blend-mode:multiply">
<path d="M147.901 11.8065C144.891 10.0328 142.432 8.6622 140.061 7.15054C139.328 6.68696 138.845 5.84043 138.247 5.17529C139.154 5.34997 140.168 5.31638 140.941 5.73293C143.474 7.11022 145.96 8.5883 148.385 10.147C149.5 10.8659 150.34 10.7853 151.449 10.1268C153.874 8.68236 156.373 7.35881 158.886 6.06214C159.746 5.61871 160.774 5.14842 161.5 6.54587C158.261 8.27253 155.036 9.99919 151.811 11.7191C151.832 11.9476 151.852 12.1827 151.865 12.4111C153.585 13.3517 155.345 14.2318 157.005 15.2665C157.757 15.7368 158.315 16.5161 158.96 17.1611C157.818 18.2898 157.012 17.0603 156.172 16.6774C154.627 15.9585 153.115 15.1321 151.704 14.1781C150.226 13.177 149.023 13.3853 147.7 14.4401C144.24 17.188 140.739 19.8888 137.226 22.5695C136.198 23.3556 135.062 24.1215 133.873 22.7442C138.435 19.1901 142.95 15.6763 147.895 11.8199L147.901 11.8065Z" fill="black"/>
<path d="M212.48 15.2869C212.742 15.1727 212.782 14.8166 212.553 14.6487C211.787 14.0776 211.163 13.6342 210.592 13.1303C209.544 12.2166 208.751 10.9333 209.456 9.71056C210.061 8.66247 211.337 7.37923 212.379 7.32548C214.623 7.20455 216.988 7.54048 219.117 8.24592C219.91 8.50794 220.501 10.2816 220.629 11.4305C220.817 13.2243 220.575 15.0652 220.414 16.8792C220.387 17.2017 220.038 17.4973 219.762 17.7996C219.668 17.9071 219.52 17.9475 219.379 17.9071L219.326 17.8937C219.171 17.8467 219.064 17.6989 219.064 17.5376V9.58962C219.064 9.40151 218.923 9.24026 218.734 9.22011C216.867 9.00511 214.898 8.65575 212.936 8.68934C212.157 8.70278 211.095 9.54931 210.733 10.2951C210.511 10.7586 211.277 11.8 211.754 12.4651C212.076 12.9153 212.735 13.1236 213.138 13.5401C213.581 14.0037 214.273 14.6419 214.193 15.0854C214.079 15.7169 213.481 16.4492 212.883 16.7717C211.23 17.672 209.026 17.1412 207.716 15.6968C207.454 15.4079 207.212 15.1122 206.957 14.7965C206.775 14.568 206.413 14.6352 206.319 14.904C206.083 15.5758 206.527 15.9453 208.858 17.7392C208.999 17.8467 209.046 18.0415 208.966 18.2028C208.516 19.0762 207.837 19.2508 206.93 18.5991C205.58 17.6317 204.565 16.4224 204.746 14.6285C204.841 13.6745 204.834 12.8145 203.725 12.5122C202.704 12.2434 201.643 11.6186 200.534 12.4786C200.339 12.6264 200.346 12.922 200.547 13.0698C200.877 13.3117 201.179 13.5334 201.475 13.7551C202.597 14.5748 203.409 15.4885 202.765 17.0203C202.126 18.5387 200.111 20.1175 198.861 19.9093C198.512 19.8488 198.041 19.5465 197.947 19.2508C197.853 18.9754 198.082 18.4245 198.344 18.2364C198.955 17.7929 199.654 17.4704 200.346 17.148C201.562 16.5836 201.609 15.8714 200.688 14.998C200.433 14.7562 200.044 14.6151 199.869 14.3396C199.466 13.7081 199.13 13.0295 198.78 12.3644C198.686 12.1897 198.747 11.9814 198.915 11.8739C199.808 11.323 200.769 10.4563 201.535 10.5974C204.122 11.0744 206.587 12.0956 208.361 14.2254C209.738 15.8782 210.437 16.1872 212.5 15.2869H212.48Z" fill="black"/>
<path d="M288.305 9.09911C288.46 9.16629 288.554 9.32754 288.534 9.4955C288.487 9.83815 288.453 10.1875 288.278 10.4361C286.034 13.6005 283.965 16.9329 281.412 19.8219C278.59 23.0132 275.648 22.5361 273.296 19.0425C273.021 18.6327 272.429 18.3841 271.932 18.2027C271.388 18.0079 270.629 18.1557 270.239 17.8332C269.514 17.2419 268.835 16.4693 268.459 15.6362C268.338 15.3675 269.117 14.5075 269.648 14.1649C270.595 13.5602 271.576 13.6744 272.309 14.6419C272.309 14.6486 272.322 14.6553 272.329 14.6688C272.544 14.9644 273.007 14.8166 273.007 14.4538C272.994 13.184 272.463 12.2165 271.341 11.0945C271.18 10.9333 270.918 10.9534 270.783 11.1281C270.663 11.2893 270.535 11.4372 270.38 11.4707C269.897 11.5715 269.178 11.679 268.916 11.417C268.613 11.1214 268.472 10.3152 268.66 9.9322C269.312 8.62881 271.294 8.47429 272.45 9.80455C274.143 11.7529 275.11 13.9499 274.438 16.7381C274.23 17.598 274.976 19.0559 275.742 19.674C276.434 20.2317 277.966 20.4265 278.752 20.0301C280.008 19.3986 281.103 18.2632 282.003 17.1345C283.797 14.877 285.403 12.4718 287.103 10.1405C287.345 9.80455 287.627 9.50222 287.902 9.19317C288.01 9.07224 288.178 9.03192 288.325 9.09239L288.305 9.09911Z" fill="black"/>
<path d="M10.0509 12.2705C8.81469 14.7429 7.7666 16.8256 6.58414 19.1771C5.41512 16.7988 4.36703 14.6623 3.13083 12.1361C2.67397 14.1786 2.26414 15.8313 1.95509 17.4975C1.74681 18.6262 1.23621 19.0092 0 18.4851C0.833096 14.837 1.66619 11.2023 2.62022 7.03006C4.07142 10.0601 5.29419 12.6131 6.61774 15.3812C7.90769 12.5997 9.10359 10.0265 10.5078 6.98975C11.4685 11.088 12.3218 14.7429 13.1952 18.4784C12.0664 18.9823 11.4416 18.7539 11.2065 17.5042C10.9041 15.8985 10.5078 14.3062 10.0509 12.2638V12.2705Z" fill="black"/>
<path d="M65.9023 6.99609C67.3401 10.0396 68.5427 12.5725 69.8663 15.3808C71.1629 12.6195 72.3723 10.0261 73.7831 7.01625C74.7439 11.1481 75.6039 14.8164 76.4638 18.5251C75.2612 18.9349 74.7036 18.7199 74.502 17.5106C74.2333 15.8645 73.7697 14.2521 73.3061 12.297C72.1102 14.6888 71.0487 16.8118 69.8663 19.17C68.6838 16.7715 67.6156 14.6149 66.3793 12.1156C65.9292 14.2051 65.5933 15.9048 65.1902 17.5845C64.8946 18.8207 64.8542 18.8072 63.2754 18.478C64.1085 14.8299 64.9416 11.1817 65.8956 6.99609H65.9023Z" fill="black"/>
<path d="M105.736 7.23811C109.156 7.20452 111.83 9.8113 111.836 13.1773C111.836 16.4022 109.169 19.0224 105.83 19.0493C102.457 19.0761 99.817 16.5634 99.7498 13.2781C99.6826 9.87849 102.269 7.27171 105.729 7.23811H105.736ZM109.868 13.1101C109.848 10.7855 108.02 8.92446 105.756 8.93118C103.552 8.93118 101.638 10.8863 101.624 13.1437C101.618 15.4145 103.499 17.289 105.783 17.2823C108.087 17.2823 109.888 15.4347 109.861 13.1101H109.868Z" fill="black"/>
<path d="M42.4543 19.0356C39.1085 19.0356 36.495 16.4624 36.4883 13.1636C36.4883 9.83794 39.0548 7.25803 42.3939 7.22444C45.8405 7.19085 48.5816 9.79763 48.5749 13.1031C48.5682 16.4557 45.9009 19.0289 42.4476 19.0289L42.4543 19.0356ZM46.5996 13.1703C46.6265 10.8323 44.8461 8.95782 42.5551 8.92423C40.3178 8.88391 38.4366 10.7718 38.4031 13.083C38.3695 15.4277 40.1432 17.2686 42.4543 17.2821C44.7991 17.2955 46.566 15.542 46.5929 13.1703H46.5996Z" fill="black"/>
<path d="M183.234 8.85047C181.413 8.60188 179.754 7.97706 177.994 8.92437C177.765 9.0453 177.725 9.36107 177.92 9.53575C178.988 10.4831 179.982 11.3699 180.977 12.2568C181.581 12.801 182.435 13.2578 182.71 13.9364C182.999 14.6485 182.999 15.7504 182.616 16.3618C182.294 16.8791 181.098 17.3292 180.533 17.1277C179.25 16.6708 178.034 15.9049 176.952 15.0584C176.186 14.4604 175.615 13.6139 175.004 12.8614C174.876 12.7069 174.648 12.68 174.487 12.801C173.096 13.8826 172.303 15.9855 172.807 17.3628C172.948 17.7525 173.351 18.2161 173.714 18.2967C173.983 18.3572 174.413 17.8801 174.702 17.5778C174.896 17.3763 174.903 16.9463 175.111 16.8253C175.421 16.6439 175.777 16.5432 176.133 16.4357C176.307 16.3819 176.502 16.4625 176.576 16.6372C176.744 17.0067 176.959 17.3964 176.872 17.6853C176.395 19.197 175.232 19.9696 173.674 19.9965C172.055 20.0234 171.604 18.7737 171.416 17.5241C171.1 15.4346 171.759 13.5669 173.136 11.9746C174.097 10.8727 175.172 10.8257 176.166 11.9141C177.033 12.8681 177.678 14.0842 178.679 14.8501C179.237 15.2801 180.05 15.3741 180.829 15.5152C181.111 15.5623 181.34 15.2935 181.245 15.0248C181.004 14.3596 180.789 13.6744 180.338 13.2041C179.243 12.0619 177.953 11.0944 176.67 10.1606C175.394 9.23342 175.689 8.46079 176.751 7.68816C178.37 6.5057 181.44 6.70726 183.489 8.18533C183.805 8.41376 183.61 8.91093 183.227 8.85718L183.234 8.85047Z" fill="black"/>
<path d="M93.0717 14.0171V18.5589C91.9363 18.8746 91.2913 18.8545 91.3182 17.4772C91.3854 14.2523 91.3383 11.0274 91.3383 7.39941C92.9642 7.51363 94.5968 7.35238 96.001 7.84284C96.8072 8.12501 97.5731 9.40153 97.768 10.3488C98.1039 11.9411 97.2977 13.2042 95.356 13.6812C96.6057 15.3743 97.7344 16.8994 99.0982 18.747C95.4971 18.8478 95.4098 15.2869 93.0717 14.0239V14.0171ZM93.2867 9.08576V12.2166C94.4826 12.183 95.7793 12.4988 95.8801 10.8326C95.9808 9.10592 94.7178 9.13279 93.2867 9.08576Z" fill="black"/>
<path d="M82.5508 7.43951C83.4712 7.43951 84.2304 7.43279 84.9829 7.43951C86.6356 7.46638 88.2346 7.60075 88.8124 9.54912C89.3499 11.3631 88.7251 12.5993 86.6155 13.8557C87.7576 15.4009 88.8931 16.9395 90.2166 18.7199C86.555 18.9013 86.5617 15.2128 84.2909 14.0438V18.6057C83.6325 18.646 83.1487 18.6796 82.5508 18.7199V7.43951ZM84.3984 12.6329C85.4599 12.1358 86.293 11.9208 86.8573 11.4034C87.1194 11.1616 87.0522 10.0866 86.7566 9.84474C86.1788 9.37444 85.339 9.22663 84.3984 8.86383V12.6329Z" fill="black"/>
<path d="M32.1888 13.8423C33.3847 15.4345 34.5 16.9193 35.6623 18.4646C33.855 19.3246 33.2369 18.0548 32.4911 17.047C31.7386 16.0258 30.9727 15.0113 29.8575 14.1043C29.8575 15.1927 29.7836 16.2811 29.8776 17.3628C29.9918 18.6393 29.4208 18.9147 28.2114 18.6057V7.43951C29.0714 7.43951 29.8171 7.43279 30.5696 7.43951C32.9614 7.46638 34.07 8.11136 34.4731 9.69693C34.9165 11.4773 34.3118 12.6195 32.1955 13.8423H32.1888ZM30.012 12.5321C30.966 12.1425 31.8461 11.9879 32.3971 11.4773C32.6792 11.2153 32.6121 10.053 32.2896 9.78427C31.7319 9.32069 30.8518 9.24007 30.012 8.96461V12.5321Z" fill="black"/>
<path d="M121.706 18.7939C118.071 18.7468 117.917 15.3473 115.68 13.9297C115.68 15.139 115.633 16.2207 115.693 17.2889C115.76 18.4378 115.404 18.9887 114.054 18.5923V7.43957C114.941 7.43957 115.747 7.42613 116.56 7.43957C118.911 7.47988 119.973 8.15845 120.349 9.84479C120.725 11.5446 120.08 12.7002 118.038 13.8222C119.173 15.3607 120.302 16.8925 121.706 18.7939ZM116.002 9.11919V12.2702C117.299 12.2164 118.495 12.2567 118.481 10.7182C118.468 9.11248 117.265 9.11248 116.002 9.11919Z" fill="black"/>
<path d="M23.3468 13.8628C24.4889 15.3946 25.6244 16.9264 26.9479 18.7068C23.2863 18.8949 23.293 15.314 20.955 13.9837C20.955 15.1662 20.9013 16.2814 20.9684 17.3967C21.0423 18.6464 20.525 18.9823 19.3022 18.5523V7.4466C20.0883 7.4466 20.8273 7.4466 21.5731 7.4466C23.293 7.43316 24.9525 7.56753 25.5706 9.56965C26.1283 11.3836 25.5236 12.5392 23.3468 13.8695V13.8628ZM21.1767 12.546C22.1375 12.1428 22.9907 11.948 23.5819 11.4508C23.844 11.2291 23.7969 10.1273 23.508 9.88542C22.937 9.4084 22.0904 9.2606 21.1767 8.90452V12.5527V12.546Z" fill="black"/>
<path d="M50.752 7.43951C51.6858 7.43951 52.4383 7.43279 53.1975 7.43951C55.596 7.4731 56.6105 8.08449 57.0674 9.7574C57.5175 11.4236 56.8188 12.7068 54.7763 13.8423C55.9319 15.3875 57.0808 16.9193 58.4178 18.7065C54.7763 18.9483 54.7495 15.3203 52.5189 14.0505V18.5721C51.8269 18.6326 51.3432 18.6796 50.752 18.7333V7.43951ZM52.6802 12.2231C53.9701 12.1962 55.3004 12.3507 55.1727 10.5502C55.0585 8.9243 53.8425 9.13929 52.6802 9.12586V12.2231Z" fill="black"/>
<path d="M192.734 16.4224C193.803 14.2657 193.709 11.7933 195.234 9.67698C195.422 9.42168 195.825 9.50902 195.899 9.81807C195.973 10.1271 196.013 10.3354 195.966 10.5235C195.435 12.6936 194.837 14.8435 194.286 17.0069C193.944 18.3439 193.218 18.6529 191.989 17.8668C191.498 17.5511 190.988 17.2689 190.477 16.9934C189.429 16.4224 188.468 15.8983 187.675 17.5376C187.433 18.0348 186.143 18.5857 185.794 18.3707C185.015 17.8937 184.269 17.0136 184.027 16.1603C183.893 15.69 184.726 14.8234 185.297 14.3262C185.606 14.0575 186.083 13.9701 186.788 13.7887C187.084 13.7148 187.165 13.3319 186.93 13.1437C186.647 12.9086 186.419 12.7272 186.19 12.5525C185.821 12.277 185.183 12.0755 185.122 11.753C185.048 11.3499 185.331 10.6982 185.666 10.463C186.009 10.2212 186.829 10.1473 187.071 10.3757C187.635 10.9132 188.361 11.6925 188.347 12.3644C188.293 15.166 190.457 15.5624 192.224 16.5903C192.412 16.6978 192.647 16.6239 192.741 16.4291L192.734 16.4224Z" fill="black"/>
<path d="M262.472 15.1656C262.58 15.3202 262.781 15.3739 262.949 15.2866C263.48 15.0111 264.212 14.6214 264.978 14.3057C265.22 14.2049 265.731 14.3258 265.879 14.5274C266.006 14.7021 265.899 15.2127 265.717 15.4209C264.152 17.2014 260.161 18.0344 257.998 16.9931C257.615 16.8117 257.326 16.4422 257.03 16.0928C256.876 15.9114 256.93 15.6427 257.138 15.5284C257.48 15.3403 257.823 15.1455 258.193 15.0178C258.502 14.9036 258.831 14.8499 259.207 14.7827C259.483 14.7357 259.61 14.4065 259.436 14.1847C259.382 14.1176 259.335 14.0571 259.288 13.9899C258.878 13.4121 258.018 12.5857 258.166 12.3036C258.502 11.6787 259.308 11.0405 260 10.9464C261.122 10.7852 262.325 10.98 263.46 11.1816C263.702 11.2286 263.903 11.5108 264.105 11.7997C264.239 11.9945 264.159 12.2632 263.944 12.3573C263.621 12.4917 263.305 12.626 262.99 12.6059C262.459 12.579 261.935 12.4581 261.31 12.3103C260.981 12.2364 260.726 12.5992 260.92 12.8813C261.465 13.6876 261.935 14.3863 262.466 15.1724L262.472 15.1656Z" fill="black"/>
<path d="M229.115 19.5799C228.994 19.506 228.933 19.3649 228.947 19.2238C228.987 18.9215 229.014 18.6125 229.101 18.3303C229.222 17.9406 229.478 17.598 229.605 17.2083C230.096 15.7504 230.317 14.0237 229.014 13.1637C227.59 12.2231 226.589 13.802 225.688 14.7493C224.835 15.6496 224.096 16.6439 223.317 17.6114C223.202 17.7525 223.008 17.7861 222.853 17.7055L222.826 17.692C222.732 17.645 222.665 17.5576 222.645 17.4569C222.578 17.1948 222.484 16.9261 222.524 16.6775C222.799 15.0046 223.048 13.325 223.471 11.6857C223.565 11.3094 223.854 10.9869 224.156 10.6645C224.351 10.4495 224.707 10.5368 224.788 10.819C224.882 11.1683 224.976 11.5177 225.05 11.8671C225.084 12.0283 225.097 12.1963 225.104 12.3844C225.11 12.6666 225.426 12.8413 225.668 12.6934C226.004 12.4919 226.3 12.3105 226.589 12.1224C229.229 10.436 230.868 11.1012 231.191 14.2253C231.332 15.6294 230.942 17.1142 230.606 18.5184C230.505 18.9282 230.002 19.2507 229.598 19.5866C229.471 19.6941 229.296 19.7009 229.162 19.6135L229.121 19.5866L229.115 19.5799Z" fill="black"/>
<path d="M248.028 12.9154C248.054 13.1909 248.357 13.3454 248.592 13.1976C249.405 12.687 250.13 12.1898 250.923 11.8673C252.569 11.1955 253.483 11.7128 253.94 13.4462C254.383 15.1258 254.027 16.6106 252.616 17.7057C252.428 17.8535 252.119 17.8468 251.81 17.8334C251.588 17.8334 251.42 17.6318 251.454 17.4101C251.481 17.1749 251.521 16.9465 251.608 16.745C251.871 16.1672 252.381 15.6566 252.495 15.0586C252.589 14.5614 252.421 13.7552 252.065 13.5066C251.743 13.2715 250.856 13.4059 250.5 13.7082C249.613 14.4607 248.914 15.4348 248.068 16.2478C247.813 16.4896 247.436 16.6106 247.08 16.745C246.892 16.8121 246.691 16.7248 246.61 16.5434C246.482 16.2411 246.341 15.9387 246.314 15.6297C246.16 13.8963 246.025 12.1629 245.999 10.4296C245.999 10.1205 246.267 9.81145 246.502 9.5024C246.617 9.35459 246.818 9.31428 246.979 9.40162C247.295 9.5763 247.638 9.75098 247.685 9.97941C247.873 10.9334 247.94 11.9076 248.028 12.9221V12.9154Z" fill="black"/>
<path d="M253.443 9.40842C253.308 9.51591 253.114 9.51591 252.979 9.40842C251.924 8.56188 250.715 7.65488 249.64 6.61351C249.385 6.36493 249.412 5.84088 249.392 5.34371C249.392 5.12872 249.566 4.95404 249.781 4.96076C250.171 4.9742 250.567 4.98091 250.897 5.14216C251.353 5.35715 251.689 5.83417 252.059 6.2104C253.06 7.23834 254.155 7.31896 255.156 6.31118C256.648 4.81967 258.025 3.20723 259.516 1.71572C259.765 1.46713 260.121 1.31261 260.477 1.17152C260.732 1.07074 261.001 1.26558 260.988 1.53432C260.968 1.87696 260.947 2.21289 260.84 2.52194C259.926 5.26309 257.004 5.96854 255.257 7.88331C254.74 8.44767 254.095 8.89109 253.45 9.4017L253.443 9.40842Z" fill="black"/>
<path d="M16.4603 18.74C15.7884 18.6997 15.3315 18.6728 14.8008 18.6392V7.56039C15.3315 7.52008 15.822 7.48648 16.4603 7.43945V18.74Z" fill="black"/>
<path d="M78.1229 7.53369H79.648C79.7219 7.69494 79.8429 7.85618 79.8429 8.01071C79.863 11.1751 79.8362 14.3395 79.8832 17.504C79.9033 18.8678 79.218 18.8947 78.1162 18.5924V7.53369H78.1229Z" fill="black"/>
<path d="M236.217 17.6185C235.189 16.1069 235.86 14.4877 235.807 12.8753C235.793 12.4789 235.256 12.3714 235.095 12.7342C235.021 12.8954 234.947 13.05 234.853 13.2045C234.705 13.4463 234.268 13.7151 234.046 13.6613C233.805 13.6009 233.549 13.191 233.496 12.8954C233.287 11.7398 235.095 9.46899 236.277 9.42868C237.688 9.38165 237.708 10.5036 237.641 11.4106C237.513 13.2179 237.218 15.0118 236.982 16.8123C236.956 17.0273 236.922 17.249 236.882 17.464C236.828 17.7932 236.398 17.894 236.217 17.6185Z" fill="black"/>
<path d="M232.374 0.936174C232.535 3.73779 231.87 6.33786 231.346 9.20666C231.272 9.60977 230.701 9.61649 230.613 9.21338C230.076 6.6805 230.613 2.50159 231.682 0.768212C231.87 0.45916 232.353 0.566656 232.374 0.936174Z" fill="black"/>
<path d="M243.298 11.0407C243.345 11.1213 243.358 11.2086 243.345 11.3027C242.868 13.8557 242.478 16.0661 242.015 18.2563C241.974 18.4512 241.739 18.6124 241.511 18.7669C241.35 18.8812 241.128 18.8476 241.007 18.693C240.859 18.5116 240.718 18.3235 240.738 18.1556C241.014 15.5958 241.323 13.0428 241.692 10.4965C241.719 10.3083 241.974 10.1538 242.23 9.99256C242.404 9.88507 242.64 9.93881 242.747 10.1202C242.955 10.4696 243.157 10.7988 243.298 11.0407Z" fill="black"/>
<path d="M109.868 13.1101C109.888 15.4347 108.088 17.2755 105.79 17.2823C103.506 17.2823 101.625 15.4145 101.631 13.1437C101.638 10.8862 103.553 8.93115 105.763 8.93115C108.021 8.93115 109.848 10.7855 109.875 13.1101H109.868Z" fill="white"/>
<path d="M46.5997 13.1706C46.5728 15.5422 44.8059 17.3025 42.4611 17.2823C40.1499 17.2689 38.3695 15.428 38.4099 13.0832C38.4434 10.7653 40.3246 8.88415 42.5619 8.92446C44.8462 8.96478 46.6266 10.8392 46.6064 13.1706H46.5997Z" fill="white"/>
<path d="M93.2866 9.08545C94.7177 9.1392 95.9875 9.1056 95.88 10.8323C95.7792 12.4985 94.4825 12.1827 93.2866 12.2163V9.08545Z" fill="white"/>
<path d="M84.3984 12.6333V8.86426C85.3323 9.22706 86.1788 9.37486 86.7566 9.84516C87.0523 10.087 87.1194 11.1687 86.8574 11.4039C86.2998 11.9212 85.46 12.1362 84.3984 12.6333Z" fill="white"/>
<path d="M30.0117 12.5324V8.96484C30.8583 9.2403 31.7317 9.32093 32.2893 9.7845C32.6118 10.0465 32.679 11.2155 32.3968 11.4776C31.8459 11.9882 30.9657 12.1427 30.0117 12.5324Z" fill="white"/>
<path d="M116.002 9.11914C117.265 9.11914 118.468 9.11242 118.481 10.7181C118.495 12.2567 117.299 12.2164 116.002 12.2701V9.11914Z" fill="white"/>
<path d="M21.1768 12.5456V8.89746C22.0905 9.25354 22.937 9.40135 23.5081 9.87836C23.797 10.1202 23.844 11.2221 23.582 11.4438C22.9908 11.9409 22.1375 12.1358 21.1768 12.5389V12.5456Z" fill="white"/>
<path d="M52.6802 12.2232V9.12593C53.8425 9.14609 55.0585 8.92438 55.1727 10.5503C55.3004 12.3508 53.9701 12.1896 52.6802 12.2232Z" fill="white"/>
</g>
</svg>
